<?xml version="1.0" standalone="no"?>
<!DOCTYPE svg PUBLIC "-//W3C//DTD SVG 20010904//EN"
 "http://www.w3.org/TR/2001/REC-SVG-20010904/DTD/svg10.dtd">
<svg version="1.0" xmlns="http://www.w3.org/2000/svg"
 width="360.000000pt" height="360.000000pt" viewBox="0 0 360.000000 360.000000"
 preserveAspectRatio="xMidYMid meet">

<g transform="translate(0.000000,360.000000) scale(0.100000,-0.100000)"
fill="#000000" stroke="none">
<path d="M1739 3547 c-201 -107 -527 -362 -677 -530 l-52 -57 0 -124 c0 -274
-70 -681 -157 -911 -18 -47 -21 -50 -58 -53 -22 -1 -50 -5 -62 -7 -34 -8 -149
-149 -187 -228 -29 -61 -41 -75 -102 -117 -76 -52 -100 -84 -91 -121 8 -32
165 -214 374 -434 300 -317 684 -644 937 -798 84 -51 101 -57 149 -57 48 0 63
6 146 58 198 123 428 305 670 531 134 126 438 446 547 576 32 39 67 79 76 89
20 22 23 58 8 86 -6 11 -44 42 -84 71 -62 43 -78 60 -95 101 -26 64 -97 163
-150 211 -36 32 -47 37 -92 37 -48 0 -51 1 -66 38 -86 206 -163 652 -163 950
l0 105 -107 110 c-92 93 -275 249 -363 310 -162 111 -274 179 -316 191 -14 4
-43 -5 -85 -27z m167 -153 c188 -118 363 -254 495 -384 l86 -85 7 -160 c16
-396 119 -883 233 -1108 15 -30 22 -58 19 -72 -12 -48 -165 -245 -280 -361
-104 -105 -227 -204 -253 -204 -4 0 39 44 97 98 57 53 137 135 178 182 80 92
188 247 198 285 3 14 -8 58 -29 116 -111 296 -175 623 -199 1019 l-11 185 -66
68 c-134 139 -318 286 -483 387 l-87 52 -48 -27 c-159 -92 -336 -229 -489
-377 l-101 -98 -7 -133 c-13 -254 -43 -488 -92 -705 -27 -120 -92 -335 -126
-414 -12 -28 -18 -57 -14 -71 3 -13 38 -73 78 -133 55 -84 109 -146 234 -272
89 -89 160 -162 157 -162 -18 0 -152 107 -232 184 -92 90 -258 298 -289 362
-15 32 -14 36 16 102 119 257 213 709 229 1092 l6 155 32 41 c49 59 219 206
357 307 114 83 275 187 289 187 3 0 46 -25 95 -56z m57 -377 l-38 -97 -207
-103 c-166 -83 -208 -100 -208 -86 0 12 47 41 172 103 94 47 177 86 184 86 7
0 38 45 70 100 32 54 60 98 61 96 2 -2 -14 -46 -34 -99z m228 -202 c58 -54 60
-55 69 -33 7 18 9 11 9 -32 l0 -55 -89 94 c-126 132 -118 150 11 26z m-749
-17 c-17 -35 -38 -88 -47 -118 -11 -38 -31 -72 -65 -110 -27 -30 -52 -52 -55
-48 -9 9 11 43 49 86 18 21 39 55 46 77 13 42 53 125 78 163 27 42 24 14 -6
-50z m-583 -1064 c9 -9 -30 -53 -43 -48 -16 6 -96 -92 -96 -117 0 -22 79 -157
135 -230 27 -35 100 -115 161 -176 62 -62 110 -113 107 -113 -16 0 -180 140
-249 213 -90 95 -214 270 -214 303 0 24 43 94 90 148 30 34 37 37 69 31 20 -4
38 -8 40 -11z m2020 -31 c22 -26 51 -68 65 -93 l25 -45 -36 -60 c-82 -136
-219 -289 -355 -398 -106 -85 -100 -69 19 50 66 65 141 147 168 182 56 74 135
208 135 230 0 24 -80 123 -96 117 -7 -3 -20 5 -29 17 -19 28 -19 35 3 40 46
12 61 6 101 -40z m-2235 -227 c9 -14 7 -20 -8 -30 -10 -6 -39 -26 -64 -44 -44
-34 -45 -34 -64 -14 -20 19 -20 20 14 44 103 76 103 76 122 44z m2429 -29 c56
-37 58 -40 42 -57 -17 -18 -19 -18 -79 23 -33 23 -62 43 -64 44 -2 1 1 11 8
22 12 24 9 25 93 -32z"/>
</g>
</svg>
